#!OML:ASF F:\twosubjects\two\Thursday\Session 1\justin.ASF
:FULLY-SPECIFIED
:DEGREES
758
root 6.36026 18.0304 -14.1308 -167.982 -49.9194 538.417
lowerback 1.75342 6.66163 2.49746
upperback 2.3393 8.79286 2.12205
thorax 1.47192 4.37867 0.762599
lowerneck -13.8391 15.0528 4.19261
upperneck 20.4567 20.8029 -4.31057
head 9.62426 9.5271 0.555649
rclavicle -1.11717e-013 2.38542e-014
rhumerus -17.2345 -12.1743 -75.9396
rradius 28.6342
rwrist -6.87846
rhand -22.3862 9.90843
rfingers 7.12502
rthumb 4.03586 -20.0331
lclavicle -1.11717e-013 2.38542e-014
lhumerus -33.0175 -10.0348 92.3457
lradius 41.2494
lwrist -4.08586
lhand 3.32557 34.7086
lfingers 7.12502
lthumb 28.7716 62.5114
rfemur -16.495 -13.0059 24.7151
rtibia 32.177
rfoot -19.9282 -4.89302
rtoes -7.66349
lfemur -25.619 -6.46348 -12.6576
ltibia 29.1317
lfoot -8.10206 -3.33012
ltoes -11.7032
759
root 6.35932 18.0251 -14.1849 -168.146 -49.7014 538.732
lowerback 1.74521 6.58253 2.48511
upperback 2.29839 8.68006 2.35671
thorax 1.39548 4.31689 1.00188
lowerneck -14.0074 15.1323 3.64108
upperneck 20.373 20.9993 -4.17924
head 9.55487 9.59409 0.700266
rclavicle -1.27222e-014 -1.74931e-014
rhumerus -17.1591 -11.6517 -75.9131
rradius 28.7786
rwrist -7.01033
rhand -22.3656 9.72509
rfingers 7.12502
rthumb 4.0557 -20.2161
lclavicle -1.27222e-014 -1.74931e-014
lhumerus -33.0331 -9.22353 92.4067
lradius 41.3941
lwrist -4.43555
lhand 2.89661 34.3392
lfingers 7.12502
lthumb 28.3618 62.2109
rfemur -16.374 -12.9943 25.0591
rtibia 32.0283
rfoot -19.8018 -4.76386
rtoes -7.33092
lfemur -25.9869 -6.32589 -12.8796
ltibia 28.2812
lfoot -8.15038 -3.55834
ltoes -11.4202
760
root 6.35465 18.0217 -14.2396 -168.477 -49.4503 539.088
lowerback 1.91501 6.70926 2.70078
upperback 2.24508 8.8526 2.47556
thorax 1.26094 4.40164 0.980976
lowerneck -14.5859 15.0892 3.00675
upperneck 20.8955 20.9659 -3.54468
head 9.69132 9.56338 1.03745
rclavicle 9.26337e-014 -2.8625e-014
rhumerus -17.2492 -12.0403 -75.6717
rradius 28.8479
rwrist -7.04289
rhand -22.0629 9.85875
rfingers 7.12502
rthumb 4.34802 -20.0766
lclavicle 9.26337e-014 -2.8625e-014
lhumerus -33.0292 -9.03585 92.4479
lradius 41.5133
lwrist -4.3625
lhand 3.04674 33.8116
lfingers 7.12502
lthumb 28.5052 61.6593
rfemur -16.0895 -12.8578 25.3583
rtibia 31.8838
rfoot -19.7894 -4.67242
rtoes -6.90789
lfemur -26.1902 -5.88464 -13.2203
ltibia 27.4702
lfoot -8.28578 -4.03188
ltoes -10.7794
761
root 6.34601 18.0169 -14.2943 -168.683 -49.2557 539.412
lowerback 1.92571 6.88737 2.95059
upperback 2.14904 9.0971 2.4303
thorax 1.20356 4.52669 0.79477
lowerneck -15.4018 15.1917 3.12148
upperneck 21.8869 21.0047 -2.95114
head 10.1314 9.58413 1.33016
rclavicle -5.56597e-014 6.36111e-015
rhumerus -17.4169 -12.9687 -75.5855
rradius 28.9622
rwrist -6.96438
rhand -21.3738 10.1245
rfingers 7.12502
rthumb 5.01346 -19.7962
lclavicle -5.56597e-014 6.36111e-015
lhumerus -33.0512 -9.46294 92.4658
lradius 41.5641
lwrist -4.73045
lhand 3.14037 33.973
lfingers 7.12502
lthumb 28.5947 61.8057
rfemur -15.9215 -12.7148 25.6566
rtibia 31.7458
rfoot -19.8246 -4.58478
rtoes -7.2122
lfemur -26.4579 -5.21714 -13.6922
ltibia 26.6566
lfoot -8.43652 -4.56313
ltoes -10.0604
762
root 6.33696 18.0184 -14.3498 -168.593 -49.0661 539.463
lowerback 1.96037 6.95248 2.9891
upperback 1.95143 9.20188 2.28388
thorax 1.01166 4.58139 0.606828
lowerneck -16.7412 15.5696 3.31612
upperneck 23.6157 21.3009 -1.82971
head 10.8927 9.74464 1.91112
rclavicle 5.24792e-014 1.59028e-015
rhumerus -17.7574 -13.0529 -75.8298
rradius 29.1927
rwrist -7.20502
rhand -21.1211 10.2604
rfingers 7.12502
rthumb 5.25739 -19.6543
lclavicle 5.24792e-014 1.59028e-015
lhumerus -33.3112 -9.79472 92.3476
lradius 41.8632
lwrist -5.03122
lhand 2.84613 34.1593
lfingers 7.12502
lthumb 28.3135 62.039
rfemur -15.8604 -12.598 25.7669
rtibia 31.6183
rfoot -19.7779 -4.41565
rtoes -6.8894
lfemur -26.8048 -4.6701 -14.3348
ltibia 25.8415
lfoot -8.36167 -5.22798
ltoes -6.92739
763
root 6.32854 18.0216 -14.4029 -168.377 -48.9065 539.393
lowerback 1.83378 6.83303 2.85172
upperback 1.87668 9.04129 2.29206
thorax 0.980226 4.50021 0.697929
lowerneck -17.8147 15.925 2.91095
upperneck 24.7142 21.7127 -0.866131
head 11.3316 9.93634 2.48789
rclavicle -2.66371e-014 -1.74931e-014
rhumerus -17.8382 -12.3846 -76.1456
rradius 29.3877
rwrist -7.36545
rhand -21.1206 10.5914
rfingers 7.12502
rthumb 5.25794 -19.3234
lclavicle -2.66371e-014 -1.74931e-014
lhumerus -33.2377 -8.71252 91.7357
lradius 41.9692
lwrist -4.69601
lhand 4.40888 33.0461
lfingers 7.12502
lthumb 29.806 60.6683
rfemur -15.8304 -12.6654 25.8131
rtibia 31.4819
rfoot -19.6249 -4.18585
rtoes -6.21253
lfemur -27.2268 -4.21256 -15.0589
ltibia 25.0668
lfoot -7.93452 -6.0711
ltoes -5.17953
764
root 6.32399 18.0275 -14.4551 -168.287 -48.7822 539.477
lowerback 1.64635 6.7637 2.74958
upperback 1.87416 8.93672 2.42253
thorax 1.0443 4.44528 0.906717
lowerneck -18.0706 16.0251 2.52374
upperneck 24.642 21.9507 -0.815342
head 11.2998 10.0166 2.60317
rclavicle -3.85642e-014 -7.79236e-014
rhumerus -17.8127 -12.1209 -76.2059
rradius 29.6322
rwrist -7.22153
rhand -20.7543 10.748
rfingers 7.12502
rthumb 5.61158 -19.1577
lclavicle -3.85642e-014 -7.79236e-014
lhumerus -33.0188 -7.93067 91.4981
lradius 41.9674
lwrist -4.86868
lhand 5.35041 33.2717
lfingers 7.12502
lthumb 30.7041 60.7291
rfemur -15.7962 -12.7679 25.999
rtibia 31.3124
rfoot -19.6586 -4.05255
rtoes -5.3997
lfemur -27.7007 -3.70413 -15.7069
ltibia 24.3732
lfoot -7.47328 -7.15469
ltoes -7.04021
